<?xml version="1.0" encoding="UTF-8"?>
<svg id="Capa_1" data-name="Capa 1" xmlns="http://www.w3.org/2000/svg" viewBox="0 0 2000 2000">
  <defs>
    <style>
      .cls-1 {
        fill: #fff;
        stroke-width: 0px;
      }
    </style>
  </defs>
  <path class="cls-1" d="M1706.3,591.85c-28.07-6.23-58.33-2.67-67.89,32.5-4.66,17.15-9.71,34.2-15.08,51.14-11.44,36.11-24.73,71.49-43.93,104.32-6.72,11.49-14.15,22.62-25.09,30.64-10.31,7.56-19.54,4.14-22.78-8.17-2.61-9.89-1.95-20-.8-29.92,4.75-41.11,12.27-81.72,22.68-121.79,3.34-12.84,6.88-25.69,8.37-38.9,1.49-13.21-3.91-20.03-17.05-21.61-6.68-.8-13.53-.59-20.28-.23-22.54,1.2-38.2,11.87-45.77,33.65-16.54,47.59-27.39,96.37-29.69,146.77-.51,11.17-2.9,20.31-11.78,27.66-7.52,6.22-14.11,13.54-21.51,19.92-10.6,9.14-22.84,15.18-36.61,18.21-23.38,5.14-40.43-.09-50.79-16.03-4.14-6.37-6.35-13.57-8.67-20.72-2.84-8.76-1.88-15.9,4.06-24.07,53.13-73.09,97.33-151.17,128.84-236.07,18.58-50.04,32.07-101.24,32.61-155.11.27-27.51-1.85-54.67-13.46-80.14-9.8-21.49-24.74-37.24-49.42-40.32-18.25-2.28-35.35,2.19-51.19,11.4-20.48,11.92-35.47,29.34-47.81,49.09-24.58,39.36-41.62,82.1-55.05,126.35-16.93,55.78-27.26,112.95-34.26,170.71-5.44,44.86-8.24,89.91-4.33,135.09.4,4.62-.53,7.18-4.47,9.74-31.57,20.47-62.05,42.48-91.83,65.47-1.76,1.36-3.32,3.47-6.38,3.54,3.25-20.57,6.37-40.59,9.57-60.61,6.6-41.31,13.47-82.59,19.8-123.94,4.15-27.11-3.05-40.27-27.65-52.24-19.02-9.26-39.39-10.26-60.14-10.23-30.76.05-59.13,7.97-84.48,25.03-62.7,42.2-94.86,102.13-100.82,176.84-.21,2.68.39,5.45-1.98,7.72-15.15,14.55-31.22,27.55-52.35,32.46-27.57,6.42-49.78-5.19-57.8-30.75-3.63-11.58-4.16-23.64-3.25-35.73,2.99-40.02,9.41-79.62,14.84-119.34,4.99-36.48,12.22-72.3,30.71-104.88,10.54-18.58,23.54-34.86,40.51-48.02,15.49-12.02,27.53-25.61,26.43-47.66-.78-15.62-17.95-38.64-38.96-39.16-32.48-.8-58.5,13.8-81.99,34.21-18.29,15.89-29.99,36.78-41.85,57.42-15.6,27.15-24.28,56.94-32.6,86.85-9.48,34.07-21.15,67.36-35.47,99.69-15.47,34.94-32.94,68.78-59.25,97.08-20.26,21.79-42.97,39.84-73.44,45.45-35.99,6.63-60.12-13.49-59.66-50.08.15-11.82,1.44-23.54,3.71-35.1,11.26-57.26,24.74-114.04,37.67-170.94,8.71-38.33,17.57-76.76,23.97-115.4,6.63-40.04-8.34-74.86-42.59-98.48-34.85-24.04-72.59-31.16-112.98-13.78-48.9,21.04-82.81,54.06-88.03,109.93-3.06,32.72,2.02,63.56,23.01,90.14,11.64,14.74,24.03,18.19,41.98,12.46,5.29-1.69,10.14-4.24,14.75-7.31,18.78-12.51,21.54-23.91,11.03-43.67-9.97-18.73-12.39-38.35-6.05-58.85,6.83-22.1,29.4-29.91,43.58-20.85,10.51,6.71,19.1,30.2,16.27,42.72-4.66,20.64-9.54,41.23-14.18,61.86-15.47,68.89-30.29,137.93-44.61,207.07-6.32,30.51-10.16,61.49-3.67,92.56,8.94,42.79,33.18,72.44,76.86,81.96,55.6,12.12,105.34-1.38,148.12-39.1,31.19-27.5,52.99-61.88,71.14-98.83,1.21-2.46,2.33-5.04,3.98-7.18,2.15-2.78,5.3-5.58,8.79-4.12,3.67,1.53,6.3,4.85,5.44,9.62-.44,2.46-.6,4.98-.8,7.47-.98,12.49-2.53,24.95-1.85,37.53,2.57,47.95,29.95,82.45,76.58,93.93,48.91,12.04,93.91,2.55,134.25-28,3.09-2.34,5.82-4.95,10.37-5.35,8.13-.73,12.14,4.42,16.67,9.46,31.65,35.26,83.8,38.58,119.5,7.73,2.8-2.42,5.41-7.59,9.48-5.19,5.14,3.02,1.67,8.66,1.24,13.15-.26,2.76-3.14,3.75-5.05,5.25-28.23,22.14-55.95,44.89-81.96,69.62-18.16,17.27-35.68,35.14-51.34,56.1,16.45,2.28,31.81,4.69,47.23,6.44,10.89,1.24,21.08,2.28,29.01-9.55,6.71-10.01,16.96-17.66,25.78-26.21,2.32-2.25,5.33-4.48,8.68-2.74,3.07,1.59,3.95,4.92,3.83,8.35-.13,3.75.41,7.68-.53,11.22-9.62,36.35-19.18,72.75-38.39,105.61-6.2,10.61-12.71,21.1-23.14,28.16-11.47,7.76-22.89,3.85-27.49-9.14-.83-2.34-1.43-4.82-1.74-7.29-.31-2.42-1.25-3.34-3.78-3.46-19.19-.91-38.38-1.8-57.54-3.07-5.3-.35-6.29,2.06-6.53,6.47-.45,8.3-.12,16.51,1.07,24.74,4.66,32.31,30.58,55.47,55.4,60.22,46.9,8.98,83.52-9.37,110.05-47.93,28.23-41.03,45.96-87,60.19-134.39,11.38-37.93,20.07-76.53,27.28-115.46.61-3.32,1.57-6.04,4.64-8.11,41.32-27.94,82.58-55.96,123.78-84.08,3.18-2.17,4.35-1.84,5.78,1.76,3.13,7.91,6.37,15.81,10.24,23.37,19.21,37.53,49.39,57.21,92.2,57.13,38.67-.08,70.92-15.26,99.45-40.13,8.31-7.25,8.37-7.18,13.45,2.36,22.88,42.99,67.43,50.41,103.26,17.18,18.32-16.99,29.43-38.41,37.78-61.53,1.17-3.23,2.31-6.46,3.47-9.69-1.08,17.26-3.55,34.09-6.28,50.88-2.96,18.2-3.94,36.82-7.79,54.7-9.05,42.02-28.59,78.8-61.06,107.9-3.37,3.02-3.41,6.06-2.83,10.54,1.47,11.33,2.85,22.96,1.82,34.24-.93,10.13-.32,20.38-2.35,30.46-.7,3.5-3.27,7.2-.94,11.32,1.5-.7,2.87-1.25,4.15-1.97,30.23-16.94,55.86-39.4,77.79-66.02,28.54-34.65,45.05-75.14,55.28-118.34,4.09-17.28,6.81-34.91,9.59-52.47,11.47-72.5,23.08-144.98,35.54-217.32,3.02-17.52,5.21-35.2,7.49-52.84,1.5-11.63-1.55-19.12-9.92-20.97ZM1064.86,702.88c-4.73,26.12-9.59,52.22-15,78.2-3.98,19.09-10.9,37.03-24.84,51.4-6.07,6.26-13.07,10.99-22.16,11.46-16.71.85-28.93-9.03-32.26-26.27-1.43-7.4-2.12-14.9-1.36-21.6,1.9-40.5,13.51-76.67,38.84-107.72,12.9-15.81,28.42-28.26,48.59-33.78,8.42-2.3,14.75,2.42,14.39,11.31-.51,12.55-3.98,24.69-6.21,36.99ZM1311.94,691.31c.98-35.67,3.29-69.41,7.69-102.97,8.22-62.65,19.93-124.58,38.92-184.97,5.86-18.63,12.18-37.12,21.87-54.21,2.21-3.9,4.71-7.74,7.67-11.09,9.06-10.28,18.88-8.7,24.53,3.91,4.81,10.74,5.55,22.35,5.81,33.85.96,42.49-6.52,83.76-18.73,124.29-19.98,66.32-49.6,128.29-84.96,187.64-.47.79-1.15,1.47-2.79,3.54Z"/>
  <path class="cls-1" d="M1625.22,1245.76c-13.69-12.22-30.98-15.4-48.79-13.27-27.22,3.25-52.01,13.68-75.11,28.16-30.29,18.99-56.86,42.24-80.35,69.25-17.44,20.06-32.7,41.49-45.87,64.52-6.41,11.21-11.46,23.01-16.69,34.77-1.11,2.51-1.98,6.87-6.24,5.94-3.53-.77-2.81-4.38-2.74-6.96.37-14.79,1.01-29.57,1.35-44.36.07-3.18,1.96-4.99,3.76-7.03,11.12-12.6,22.44-25.02,33.32-37.82,38.86-45.74,75.42-93.12,102.6-147.03,16.87-33.46,28.37-68.61,30.39-106.16,1.14-21.08.88-42.27-2.68-63.34-5.8-34.25-36.5-59.83-70.73-57.88-13.46.77-26.16,4.57-37.76,11.5-34.93,20.87-53.15,54.69-70.4,90.22,21.24,2,41.52,3.67,61.95,3.64,6.4,0,10.1-1.34,12.28-7.71,1.76-5.15,4.59-10.05,7.64-14.6,4.65-6.93,8.69-16.15,19.02-14.45,10.84,1.79,12.57,11.9,14.58,20.65,5.81,25.31,2.97,50.4-3.97,74.93-14.85,52.47-42.02,98.73-73.7,142.58-2.17,3-4.82,5.06-8.62,6.58-6.85,2.74-7.53-.44-6.84-5.53,1.55-11.42,3.3-22.81,5.16-34.18,3.89-23.73,8.52-47.33,13.93-70.77.62-2.67,2.25-6.16-3.25-5.93-22,.92-43.69-4.4-65.75-3.2-4.89.27-6.84,1.32-8.15,6.12-13.82,50.63-22.75,102.17-29.27,154.16-6.63,52.82-9.48,105.87-8.75,159.11.05,3.44-.71,6.21-3.14,8.83-10.73,11.61-21.57,23.1-33.82,33.16-10.83,8.9-23.01,14.98-36.79,17.87-27.9,5.85-46.34-2.94-55.45-26.88-2.04-5.36-3.17-11.06-4.84-16.56-1.49-4.89-.52-8.8,2.64-13.1,23.01-31.34,44.32-63.81,63.73-97.51,36.49-63.39,67.3-129.27,86.3-200.18,8.91-33.25,16.57-66.75,14.23-101.61-.08-1.25.06-2.51.06-3.76-.02-25.27-3-50.02-13.59-73.29-12.91-28.36-34.89-42.26-63.36-40.04-16.09,1.25-30.75,6.77-43.93,16.08-24.24,17.13-40.11,41.02-53.65,66.76-.84,1.61-2.65,3.13-1.24,5.84,6.84-1.2,13.51,1.42,20.54,1.61,13.87.38,27.81.48,41.57,2.74,3.3.54,5.47-.48,7.19-3.75,2.54-4.85,5.46-9.64,8.96-13.84,9.14-10.97,18.84-9.5,25.13,3.2,5.76,11.62,6.53,24.23,7.51,36.71,2.51,32.06-5.56,62.79-12.97,93.46-16.18,66.97-43.97,129.28-77.26,189.3-.84,1.52-1.82,3.04-3.05,4.24-2.74,2.67-4.85,6.72-9.9,4.92-5.3-1.89-3.89-6.32-3.72-10.06,2.18-47.91,8.71-95.3,17.36-142.42,4.02-21.92,8.68-43.72,14.01-65.37.53-2.16,3.42-6.31-2.64-6.02-10,.48-19.92-1.23-29.84-1.88-10.1-.67-20.35-.17-30.4-2.44-9.21-2.09-10.97-.59-13.71,8.52-16.72,55.59-27.19,112.47-34.05,169.99-6.03,50.61-9.36,101.39-2.38,152.26.38,2.78-.43,4.73-2.19,6.77-12.17,14.02-24.35,28.04-38.14,40.52-7.99,7.24-16.33,14.17-27.26,16.7-10.56,2.44-18.92-2.37-22.22-12.67-2.12-6.63-1.56-13.42-1.03-20.15,1.98-25.27,6.22-50.22,10.83-75.12,5.25-28.32,11.3-56.49,14.47-85.18,2-18.09-6.06-30.45-20.8-39.82-16.63-10.57-35.31-14.37-54.31-15.8-31.06-2.34-61.11,2.45-88.54,18.16-58.6,33.56-92.96,84.85-107.2,149.96-7.16,32.74-7.68,65.7,4.37,97.79,16.48,43.89,57.53,66.65,103.32,57.33,28.24-5.75,48.26-23.19,64.63-45.76,2.11-2.92,3.5-6.51,6.67-8.54.58.51.82.64.91.83,1.15,2.5,2.22,5.04,3.41,7.52,10.94,22.64,26.67,40.1,52.11,46.13,22.13,5.25,42.23-1.31,60.93-12.68,20.29-12.33,37.52-28.43,53.82-45.55,6.12-6.43,6.03-6.39,10.18,1.77,12.1,23.76,28.59,43.43,54.73,51.86,42.26,13.62,81.59,5.63,117.99-18.83,10.1-6.79,19.45-14.61,29.15-23.27.96,4.14,1.51,7.1,2.34,9.97,3.33,11.6,6.63,23.36,16.83,31.12,19.73,15,50.89,7.6,61.68-14.56,7.96-16.36,10.83-34.33,15.88-51.6,5.94-20.32,12.69-40.32,23.2-59.74,13.34,37.58,29.74,72.28,61.93,96.93,33.83,25.9,72.28,34.68,113.99,29.84,14.79-1.72,23.49-14.24,24.97-28.08,1.57-14.64-6.72-25.71-20.73-30.56-10.04-3.47-20.71-3.74-30.85-6.9-25.89-8.08-48.41-21.6-69.1-39.04-18.33-15.44-33-33.54-43.67-54.74-5.42-10.76-5.05-23.61,1.64-32.87,21.23-29.37,46.44-55.02,77.75-74.06,25.84-15.72,53.41-26.29,83.58-30.37,8.72-1.18,17.71-.44,26.28-4.05,13.3-5.6,23.21-14.72,24.44-28.89,1.12-12.99-6.33-24.56-15.79-33.01ZM893.08,1370.76c-7.51,39.1-15.52,78.11-23.93,117.02-3.69,17.07-10.91,32.79-23.22,45.67-9.33,9.75-20.29,14.62-33.89,10.34-13.45-4.24-18.88-14.67-20.96-27.63-1.04-6.47-1.46-12.95-.78-20.19,1.25-33.34,10.36-65.02,29.3-93.48,13.15-19.76,29.51-36.04,52.41-44.45,1.88-.69,3.76-1.47,5.71-1.86,9.64-1.93,17.99.93,15.37,14.59Z"/>
  <path class="cls-1" d="M733.71,1701.63c-13.8-11.68-29.9-20.45-42.85-33.23-24.64-24.32-42.73-53.09-55.86-84.9-23.17-56.09-31.49-115.16-33.32-175.31-1.06-34.83,2.56-69.3,8.69-103.68,11.2-62.81,23.48-125.41,35.13-188.13.69-3.7,2.04-5.53,6.35-5.41,33.34.92,66.67,1.51,99.99,3.12,35.74,1.73,71.3,6.93,107.24,5.14,6.55-.33,13.32.06,20.08,1.02,14.23,2.02,28.66,2.97,43.04,3.47,10.3.35,20.64-.55,30.87,1.44,11.2,2.18,15.7.68,20.76-8.72,9.92-18.44,18.13-37.52,22.42-58.27,1.24-6-.43-6.76-4.97-7.15-21.02-1.8-42.02-3.89-63.06-5.25-9.43-.61-18.86-1.43-28.31-1.94-23.6-1.27-47.12-3.91-70.7-5.66-14.86-1.1-29.7-2.46-44.59-3.3-23.03-1.3-45.96-5.01-68.99-5.53-73.96-1.66-147.95-2.13-221.55,7.39-39.34,5.09-78.14,12.55-114.86,28.35-49.1,21.13-83.29,54.29-88.39,110.53-2.91,32.16,2.04,62.55,22.37,88.87,12.23,15.83,25.92,19.63,44.48,12.79,8.1-2.98,15.26-7.59,21.45-13.57,10.19-9.83,11.54-20.03,4.88-32.57-2.81-5.29-5.81-10.63-7.56-16.31-7.45-24.11-6.75-47.15,11.67-66.67,10.65-11.28,24.78-16.82,39.26-21.17,38.06-11.43,77.38-13.45,116.72-15.03,7.07-.29,9.43,2.83,7.49,9.9-10.23,37.33-17.68,75.19-24.32,113.33-5.76,33.13-11.25,66.28-14.24,99.72-2.22,24.83-4.38,49.78-3.23,72.79-.36,23.24.99,44.37,2.74,65.53,2.25,27.13,6.29,53.87,12.17,80.43,16.73,75.61,48.15,143.31,105.5,197.14,25.64,24.07,54.68,39.5,91.29,36.95,16.13-1.12,34.14-15.16,36.5-30.21,3.71-23.72-7.08-41.3-24.3-55.88Z"/>
  <path class="cls-1" d="M1136.97,1136.25c8.97.97,17.91.61,26.82,1.5,17.36,1.75,34.76,2.86,52.22,2.81,2.55,0,3.83-.5,4.22-3.62,1.08-8.56,3.33-16.98,4.1-25.55,1.07-11.91,1.3-23.9,1.72-35.86.13-3.73-1.41-5.69-5.78-5.93-22.82-1.27-45.68-2.33-68.39-4.76-7.11-.76-14.32-.85-21.46-1.99-12.46-1.97-25.14-2.57-37.74-3.65-2.38-.2-4.21-.35-5.35,3.23-7.39,23.17-15.53,46.08-26.79,69.21,7.6-.92,13.67.8,19.84,1.19,18.86,1.21,37.82,1.39,56.58,3.41Z"/>
  <path class="cls-1" d="M1301.26,1143.03c-.32,2.26-.72,3.23,2.27,3.52,11.58,1.11,23.14,2.34,34.76,3.17,7.93.57,15.88.85,23.8,1.5,16.32,1.34,32.61,3.01,48.91,4.55,6.33.81,12.28-2.45,18.56-1.8,2.09.22,3.2-1.07,3.97-2.75,10.36-22.4,15.23-46.1,16.87-70.59.3-4.55-1.08-4.8-5.64-4.19-13.87,1.85-27.48,4.18-41.97,2.64-29.71-3.16-59.73-1.71-89.63-1.92-3.3-.02-3.83,1.51-4.75,4.11-1.99,5.68-.36,11.45-1.12,17.11-1.99,14.89-3.89,29.79-6.03,44.66Z"/>
</svg>